# xmcd
#
# Track frame offsets:
#	150
#	21202
#	37795
#	59915
#	82730
#	100697
#	115035
#	130775
#	153820
#	179557
#
# Disc length: 2683 seconds
#
# Revision: 1
# Processed by: cddbd v1.5PL3 Copyright (c) Steve Scherf et al.
# Submitted via: CDex 1.50Beta5
#
DISCID=710a790a
DTITLE=馬渡松子 - 逢いたし学なりがたし
DYEAR=1900
DGENRE=Pop
TTITLE0=逢いたし学なりがたし
TTITLE1=君は今心臓破り
TTITLE2=フォーチュンテラー
TTITLE3=ついてかない
TTITLE4=ぴりぴり
TTITLE5=さまあだすと
TTITLE6=+、-、0(プラス、マイナス、ゼロ)
TTITLE7=男友達
TTITLE8=エンゲル係数の夜
TTITLE9=ホームワークが終わらない
EXTD=
EXTT0=
EXTT1=
EXTT2=
EXTT3=
EXTT4=
EXTT5=
EXTT6=
EXTT7=
EXTT8=
EXTT9=
PLAYORDER=
